{"title":"Alien Covenant 2017 Movies HD Cam XviD Clean Audio New +Sample ☻","magnet":"magnet:?xt=urn:btih:fc57904324fdeac36f165d1c13e0bf3ee0f9e336&dn=Alien+Covenant+2017+Movies+HD+Cam+XviD+Clean+Audio+New+%2BSample+%E2%98%BB&tr=udp%3A%2F%2Ftracker.leechers-paradise.org%3A6969&tr=udp%3A%2F%2Fzer0day.ch%3A1337&tr=udp%3A%2F%2Fopen.demonii.com%3A1337&tr=udp%3A%2F%2Ftracker.coppersurfer.tk%3A6969&tr=udp%3A%2F%2Fexodus.desync.com%3A6969","uploader":"basicssom","categoryP":"video","categoryS":"movies","size":"739466956","seeders":"1","leechers":"405","description":"----------------------------------------------------------------\r\nAlien Covenant 2017 Movies HD Cam XviD Clean Audio AAC New Source with Sample &#x263B;rDX&#x263B;\r\n\r\nSCREEN SHOTS &amp; POSTER:\r\n   <a href=\"\nhttp://postimage.co.nr/2017/5/domain/index.html\" rel=\"nofollow\" target=\"_NEW\">\nhttp://postimage.co.nr/2017/5/domain/index.html</a>  <a href=\"\nhttp://postimage.co.nr/2017/5/domain/1.html\" rel=\"nofollow\" target=\"_NEW\">\nhttp://postimage.co.nr/2017/5/domain/1.html</a>   <a href=\"\nhttp://postimage.co.nr/2017/5/domain/2.html\" rel=\"nofollow\" target=\"_NEW\">\nhttp://postimage.co.nr/2017/5/domain/2.html</a>   <a href=\"\nhttp://postimage.co.nr/2017/5/domain/3.html\" rel=\"nofollow\" target=\"_NEW\">\nhttp://postimage.co.nr/2017/5/domain/3.html</a>   <a href=\"\nhttp://postimage.co.nr/2017/5/domain/4.html\" rel=\"nofollow\" target=\"_NEW\">\nhttp://postimage.co.nr/2017/5/domain/4.html</a>   <a href=\"\nhttp://postimage.co.nr/2017/5/domain/5.html\" rel=\"nofollow\" target=\"_NEW\">\nhttp://postimage.co.nr/2017/5/domain/5.html</a>   <a href=\"\nhttp://postimage.co.nr/2017/5/domain/6.html\" rel=\"nofollow\" target=\"_NEW\">\nhttp://postimage.co.nr/2017/5/domain/6.html</a>   <a href=\"\nhttp://postimage.co.nr/2017/5/domain/7.html\" rel=\"nofollow\" target=\"_NEW\">\nhttp://postimage.co.nr/2017/5/domain/7.html</a>   <a href=\"\nhttp://postimage.co.nr/2017/5/domain/8.html\" rel=\"nofollow\" target=\"_NEW\">\nhttp://postimage.co.nr/2017/5/domain/8.html</a>   <a href=\"\nhttp://postimage.co.nr/2017/5/domain/9.html\" rel=\"nofollow\" target=\"_NEW\">\nhttp://postimage.co.nr/2017/5/domain/9.html</a>   <a href=\"\nhttp://postimage.co.nr/2017/5/domain/10.html\" rel=\"nofollow\" target=\"_NEW\">\nhttp://postimage.co.nr/2017/5/domain/10.html</a>\r\n\r\nFile size                                : 697 MiB\r\nDuration                                 : 2 h 2 min\r\nOverall bit rate mode                    : Constant\r\nOverall bit rate                         : 797 kb/s\r\nMovie name                               : Alien Covenant 2017 Movies HD Cam XviD Clean Audio AAC New Source &#x263B;rDX&#x263B;0\r\n\r\nVideo\r\nID                                       : 2\r\nFormat                                   : AVC\r\nFormat/Info                              : Advanced Video Codec\r\nFormat profile                           : <a class=\"__cf_email__\" href=\"/cdn-cgi/l/email-protection\" data-cfemail=\"0449656d6a444837\">[email&#xA0;protected]</a><script data-cfhash=\"f9e31\" type=\"text/javascript\">/* <![CDATA[ */!function(t,e,r,n,c,a,p){try{t=document.currentScript||function(){for(t=document.getElementsByTagName('script'),e=t.length;e--;)if(t[e].getAttribute('data-cfhash'))return t[e]}();if(t&&(c=t.previousSibling)){p=t.parentNode;if(a=c.getAttribute('data-cfemail')){for(e='',r='0x'+a.substr(0,2)|0,n=2;a.length-n;n+=2)e+='%'+('0'+('0x'+a.substr(n,2)^r).toString(16)).slice(-2);p.replaceChild(document.createTextNode(decodeURIComponent(e)),c)}p.removeChild(t)}}catch(u){}}()/* ]]> */</script>\r\nFormat settings, CABAC                   : Yes\r\nFormat settings, ReFrames                : 2 frames\r\nFormat settings, GOP                     : M=1, N=12\r\nCodec ID                                 : V_MPEG4/ISO/AVC\r\nDuration                                 : 2 h 2 min\r\nBit rate mode                            : Constant\r\nBit rate                                 : 606 kb/s\r\nWidth                                    : 680 pixels\r\nHeight                                   : 280 pixels\r\nDisplay aspect ratio                     : 2.40:1\r\nFrame rate mode                          : Constant\r\nFrame rate                               : 30.000 FPS\r\nColor space                              : YUV\r\nChroma subsampling                       : 4:2:0\r\nBit depth                                : 8 bits\r\nScan type                                : Progressive\r\nBits/(Pixel*Frame)                       : 0.106\r\nStream size                              : 515 MiB (74%)\r\nTitle                                    : &#x263B;rDX&#x263B;\r\nDefault                                  : Yes\r\nForced                                   : No\r\n\r\nAudio\r\nID                                       : 1\r\nFormat                                   : MPEG Audio\r\nFormat version                           : Version 1\r\nFormat profile                           : Layer 3\r\nCodec ID                                 : A_MPEG/L3\r\nCodec ID/Hint                            : MP3\r\nDuration                                 : 2 h 2 min\r\nBit rate mode                            : Constant\r\nBit rate                                 : 192 kb/s\r\nChannel(s)                               : 2 channels\r\nSampling rate                            : 44.1 kHz\r\nCompression mode                         : Lossy\r\nStream size                              : 168 MiB (24%)\r\nTitle                                    : &#x263B;rDX&#x263B;\r\nWriting library                          : LAME3.99.5\r\nDefault                                  : Yes\r\nForced                                   : No","last_updated":"2017-05-24T11:38:47.355Z","parsed":{"xt":"urn:btih:fc57904324fdeac36f165d1c13e0bf3ee0f9e336","dn":"Alien Covenant 2017 Movies HD Cam XviD Clean Audio New  Sample ☻","tr":["udp://exodus.desync.com:6969","udp://open.demonii.com:1337","udp://tracker.coppersurfer.tk:6969","udp://tracker.leechers-paradise.org:6969","udp://zer0day.ch:1337"],"infoHash":"fc57904324fdeac36f165d1c13e0bf3ee0f9e336","infoHashBuffer":{"type":"Buffer","data":[252,87,144,67,36,253,234,195,111,22,93,28,19,224,191,62,224,249,227,54]},"name":"Alien Covenant 2017 Movies HD Cam XviD Clean Audio New  Sample ☻","announce":["udp://exodus.desync.com:6969","udp://open.demonii.com:1337","udp://tracker.coppersurfer.tk:6969","udp://tracker.leechers-paradise.org:6969","udp://zer0day.ch:1337"],"urlList":[]}}